<?xml version="1.0" encoding="UTF-8" standalone="no"?><!DOCTYPE svg PUBLIC "-//W3C//DTD SVG 1.1//EN" "http://www.w3.org/Graphics/SVG/1.1/DTD/svg11.dtd"><svg width="100%" height="100%" viewBox="0 0 187 50" version="1.1" xmlns="http://www.w3.org/2000/svg" xmlns:xlink="http://www.w3.org/1999/xlink" xml:space="preserve" xmlns:serif="http://www.serif.com/" style="fill-rule:evenodd;clip-rule:evenodd;stroke-linejoin:round;stroke-miterlimit:2;"><g id="Layer_1-2"><g><path d="M72.1,9.3l-0,6.5c-0,0.51 0.42,0.93 0.93,0.93l5.11,0c0.51,0 0.93,0.42 0.93,0.93l-0,4.09c-0,0.51 -0.42,0.93 -0.93,0.93l-5.11,0c-0.51,0 -0.93,0.42 -0.93,0.93l-0,5.67c-0,3.58 2.68,6.52 6.15,6.92c0.47,0.05 0.81,0.47 0.81,0.94l-0,4.49c-0,0.51 -0.42,0.93 -0.93,0.93c-7.71,0 -13,-5.94 -13,-13.28l-0,-19.98c-0,-0.51 0.42,-0.93 0.93,-0.93l5.11,0c0.51,0 0.93,0.42 0.93,0.93Z" style="fill:#6d94cd;fill-rule:nonzero;"/><path d="M97.22,15.98c0.51,0 0.93,0.42 0.93,0.93l0,4.49c0,0.47 -0.34,0.89 -0.81,0.94c-3.47,0.4 -6.15,3.34 -6.15,6.92l0,11.61c0,0.51 -0.42,0.93 -0.93,0.93l-5.11,0c-0.51,0 -0.93,-0.42 -0.93,-0.93l0,-11.61c0,-7.34 5.29,-13.28 13,-13.28Z" style="fill:#6d94cd;fill-rule:nonzero;"/><g><path d="M110.49,10.01c0.13,2.52 -2.05,4.52 -4.54,4.17c-1.75,-0.24 -3.16,-1.65 -3.4,-3.4c-0.34,-2.5 1.65,-4.68 4.18,-4.54c2.01,0.11 3.66,1.76 3.77,3.77l-0.01,0Z" style="fill:#6d94cd;fill-rule:nonzero;"/><path d="M109.99,17.64c-0,-0.502 -0.408,-0.91 -0.91,-0.91l-5.15,0c-0.502,0 -0.91,0.408 -0.91,0.91l-0,23.25c-0,0.502 0.408,0.91 0.91,0.91l5.15,0c0.502,0 0.91,-0.408 0.91,-0.91l-0,-23.25Z" style="fill:#6d94cd;"/></g><path d="M142.85,29.26c0,7.34 -6.18,13.28 -13.79,13.28c-2.65,-0 -5.06,-1.07 -6.83,-2.79l0,9.22c0,0.65 -0.53,1.18 -1.18,1.18l-4.6,-0c-0.65,-0 -1.18,-0.53 -1.18,-1.18l0,-19.71c0,-7.34 6.18,-13.28 13.79,-13.28c7.61,-0 13.79,5.94 13.79,13.28Zm-7,0.71c0.43,-4.41 -3.23,-8.07 -7.64,-7.64c-3.26,0.32 -5.9,2.96 -6.22,6.22c-0.43,4.41 3.23,8.07 7.64,7.64c3.26,-0.32 5.9,-2.96 6.22,-6.22Z" style="fill:#6d94cd;fill-rule:nonzero;"/><path d="M148.47,8.37l5.11,-0c0.51,-0 0.93,0.42 0.93,0.93l0,31.57c0,0.51 -0.42,0.93 -0.93,0.93l-5.11,-0c-0.51,-0 -0.93,-0.42 -0.93,-0.93l0,-31.57c0,-0.51 0.42,-0.93 0.93,-0.93Z" style="fill:#6d94cd;fill-rule:nonzero;"/><path d="M186.78,29.26l0,11.64c0,0.49 -0.4,0.89 -0.89,0.89l-4.71,0c-0.49,0 -0.89,-0.4 -0.89,-0.89l0,-2.22c-1.58,2.32 -4.27,3.85 -7.29,3.85c-7.62,0 -13.79,-5.94 -13.79,-13.28c0,-7.34 6.18,-13.28 13.79,-13.28c7.61,0 13.79,5.94 13.79,13.28l-0.01,0.01Zm-6.72,0.71c0.43,-4.41 -3.23,-8.07 -7.64,-7.64c-3.26,0.32 -5.9,2.96 -6.22,6.22c-0.43,4.41 3.23,8.07 7.64,7.64c3.26,-0.32 5.9,-2.96 6.22,-6.22Z" style="fill:#6d94cd;fill-rule:nonzero;"/><path d="M48.56,10.14c0,-5.596 -4.544,-10.14 -10.14,-10.14l-28.28,0c-5.596,0 -10.14,4.544 -10.14,10.14l0,28.28c0,5.596 4.544,10.14 10.14,10.14l28.28,0c5.596,0 10.14,-4.544 10.14,-10.14l0,-28.28Z" style="fill:#6d94cd;"/><path d="M24.28,10.87l0,5.4c0,0.43 0.35,0.77 0.77,0.77l4.24,-0c0.43,-0 0.77,0.35 0.77,0.77l0,3.39c0,0.43 -0.35,0.77 -0.77,0.77l-4.24,-0c-0.43,-0 -0.77,0.35 -0.77,0.77l0,4.7c0,2.97 2.23,5.41 5.11,5.74c0.39,0.05 0.68,0.39 0.68,0.78l0,3.73c0,0.43 -0.35,0.77 -0.77,0.77c-6.4,0 -10.8,-4.93 -10.8,-11.03l0,-16.56c0,-0.43 0.35,-0.77 0.77,-0.77l4.24,-0c0.43,-0 0.77,0.35 0.77,0.77Z" style="fill:#fff;fill-rule:nonzero;"/></g></g></svg>